<svg xmlns="http://www.w3.org/2000/svg" width="600" height="1000" viewBox="0 0 600 1000">
<path d="M159.1 316 L158.9 324 L158.3 332 L157.3 340 L156 348 L154.5 356 L152.8 364 L150.9 372 L149 380 L147.2 388 L145.5 396 L144 404 L142.7 412 L141.8 420 L141.3 428 L141.1 436 L141.4 444 L142 452 L143 460 L144.4 468 L145.9 476 L147.7 484 L149.5 492 L151.4 500 L153.3 508 L155 516 L156.4 524 L157.6 532 L158.5 540 L159 548 L159.1 556 L158.8 564 L158.2 572 L157.2 580 L155.8 588 L154.2 596 L152.5 604 L150.6 612 L148.7 620 L146.9 628 L145.2 636 L143.7 644 L142.6 652 L141.7 660 L141.2 668 L141.2 676 L141.5 684 L142.2 692 L143.2 700 L144.6 708 L146.2 716 L148 724 L149.8 732 L151.7 740 L153.5 748 L155.2 756 L156.6 764 L157.8 772 L158.6 780 L159.1 788 L159.1 796 L158.8 804 L158 812 L157 820 L155.6 828 L154 836 L152.2 844 L150.3 852 L148.4 860 L146.6 868 L145 876 L143.5 884 L142.4 892 L141.6 900 M192.8 316 L191.2 324 L189.4 332 L187.5 340 L185.6 348 L183.8 356 L182.2 364 L180.7 372 L179.6 380 L178.8 388 L178.4 396 L178.3 404 L178.7 412 L179.4 420 L180.5 428 L181.9 436 L183.5 444 L185.3 452 L187.2 460 L189.1 468 L190.9 476 L192.5 484 L193.9 492 L195.1 500 L195.8 508 L196.2 516 L196.2 524 L195.8 532 L195.1 540 L194 548 L192.5 556 L190.9 564 L189.1 572 L187.2 580 L185.3 588 L183.6 596 L181.9 604 L180.5 612 L179.4 620 L178.7 628 L178.3 636 L178.4 644 L178.8 652 L179.6 660 L180.7 668 L182.1 676 L183.8 684 L185.6 692 L187.5 700 L189.4 708 L191.2 716 L192.8 724 L194.1 732 L195.2 740 L195.9 748 L196.3 756 L196.2 764 L195.7 772 L194.9 780 L193.8 788 L192.3 796 L190.6 804 L188.8 812 L186.9 820 L185.1 828 L183.3 836 L181.7 844 L180.3 852 L179.3 860 L178.6 868 L178.3 876 L178.4 884 L178.9 892 L179.7 900 M222.3 316 L220.5 324 L218.9 332 L217.5 340 L216.5 348 L215.8 356 L215.4 364 L215.5 372 L216 380 L216.8 388 L218 396 L219.5 404 L221.2 412 L223 420 L224.9 428 L226.7 436 L228.5 444 L230.1 452 L231.4 460 L232.5 468 L233.1 476 L233.4 484 L233.3 492 L232.8 500 L231.9 508 L230.7 516 L229.3 524 L227.6 532 L225.7 540 L223.8 548 L222 556 L220.2 564 L218.7 572 L217.3 580 L216.3 588 L215.7 596 L215.4 604 L215.6 612 L216.1 620 L217 628 L218.2 636 L219.7 644 L221.4 652 L223.3 660 L225.2 668 L227 676 L228.8 684 L230.3 692 L231.6 700 L232.6 708 L233.2 716 L233.4 724 L233.3 732 L232.7 740 L231.8 748 L230.5 756 L229 764 L227.3 772 L225.4 780 L223.6 788 L221.7 796 L220 804 L218.4 812 L217.2 820 L216.2 828 L215.6 836 L215.4 844 L215.6 852 L216.2 860 L217.2 868 L218.4 876 L220 884 L221.7 892 L223.6 900 M253.4 316 L252.8 324 L252.6 332 L252.8 340 L253.3 348 L254.3 356 L255.5 364 L257.1 372 L258.8 380 L260.6 388 L262.5 396 L264.4 404 L266.1 412 L267.6 420 L268.9 428 L269.8 436 L270.4 444 L270.6 452 L270.4 460 L269.8 468 L268.8 476 L267.5 484 L266 492 L264.2 500 L262.4 508 L260.5 516 L258.6 524 L256.9 532 L255.4 540 L254.2 548 L253.3 556 L252.7 564 L252.6 572 L252.8 580 L253.5 588 L254.4 596 L255.8 604 L257.3 612 L259.1 620 L260.9 628 L262.8 636 L264.7 644 L266.4 652 L267.8 660 L269.1 668 L269.9 676 L270.4 684 L270.6 692 L270.3 700 L269.6 708 L268.6 716 L267.3 724 L265.7 732 L263.9 740 L262.1 748 L260.2 756 L258.4 764 L256.7 772 L255.2 780 L254 788 L253.2 796 L252.7 804 L252.6 812 L252.9 820 L253.6 828 L254.6 836 L256 844 L257.6 852 L259.3 860 L261.2 868 L263.1 876 L264.9 884 L266.6 892 L268 900 M290.7 316 L291.7 324 L293.1 332 L294.7 340 L296.4 348 L298.3 356 L300.2 364 L302 372 L303.7 380 L305.1 388 L306.3 396 L307.2 404 L307.6 412 L307.7 420 L307.4 428 L306.7 436 L305.6 444 L304.2 452 L302.6 460 L300.9 468 L299 476 L297.1 484 L295.3 492 L293.6 500 L292.2 508 L291 516 L290.2 524 L289.8 532 L289.7 540 L290.1 548 L290.8 556 L291.9 564 L293.3 572 L294.9 580 L296.7 588 L298.6 596 L300.5 604 L302.3 612 L303.9 620 L305.3 628 L306.5 636 L307.3 644 L307.7 652 L307.7 660 L307.3 668 L306.5 676 L305.4 684 L304 692 L302.4 700 L300.6 708 L298.7 716 L296.8 724 L295 732 L293.4 740 L292 748 L290.9 756 L290.1 764 L289.8 772 L289.8 780 L290.2 788 L291 796 L292.1 804 L293.5 812 L295.2 820 L297 828 L298.9 836 L300.8 844 L302.5 852 L304.2 860 L305.5 868 L306.6 876 L307.3 884 L307.7 892 L307.6 900 M334.1 316 L336 324 L337.8 332 L339.6 340 L341.3 348 L342.6 356 L343.7 364 L344.5 372 L344.8 380 L344.8 388 L344.4 396 L343.5 404 L342.4 412 L341 420 L339.3 428 L337.5 436 L335.6 444 L333.7 452 L332 460 L330.3 468 L329 476 L327.9 484 L327.2 492 L326.9 500 L326.9 508 L327.4 516 L328.2 524 L329.4 532 L330.9 540 L332.5 548 L334.4 556 L336.3 564 L338.1 572 L339.9 580 L341.5 588 L342.8 596 L343.9 604 L344.5 612 L344.8 620 L344.7 628 L344.3 636 L343.4 644 L342.2 652 L340.7 660 L339 668 L337.2 676 L335.3 684 L333.4 692 L331.7 700 L330.1 708 L328.8 716 L327.8 724 L327.1 732 L326.9 740 L327 748 L327.5 756 L328.4 764 L329.6 772 L331.1 780 L332.8 788 L334.7 796 L336.5 804 L338.4 812 L340.2 820 L341.7 828 L343 836 L344 844 L344.6 852 L344.9 860 L344.7 868 L344.1 876 L343.2 884 L342 892 L340.5 900 M422.7 316 L422.4 324 L421.8 332 L420.9 340 L419.6 348 L418 356 L416.3 364 L414.4 372 L412.5 380 L410.7 388 L409 396 L407.5 404 L406.2 412 L405.3 420 L404.8 428 L404.7 436 L404.9 444 L405.6 452 L406.6 460 L407.9 468 L409.4 476 L411.2 484 L413.1 492 L415 500 L416.8 508 L418.5 516 L420 524 L421.2 532 L422 540 L422.5 548 L422.7 556 L422.4 564 L421.7 572 L420.7 580 L419.3 588 L417.8 596 L416 604 L414.1 612 L412.2 620 L410.4 628 L408.7 636 L407.3 644 L406.1 652 L405.2 660 L404.8 668 L404.7 676 L405 684 L405.7 692 L406.7 700 L408.1 708 L409.7 716 L411.5 724 L413.4 732 L415.2 740 L417.1 748 L418.7 756 L420.2 764 L421.3 772 L422.1 780 L422.6 788 L422.6 796 L422.3 804 L421.6 812 L420.5 820 L419.1 828 L417.5 836 L415.7 844 L413.8 852 L411.9 860 L410.1 868 L408.5 876 L407.1 884 L405.9 892 L405.1 900 M455.8 316 L454.2 324 L452.4 332 L450.6 340 L448.7 348 L446.9 356 L445.2 364 L443.8 372 L442.6 380 L441.8 388 L441.4 396 L441.4 404 L441.7 412 L442.5 420 L443.6 428 L445 436 L446.6 444 L448.4 452 L450.2 460 L452.1 468 L453.9 476 L455.6 484 L457 492 L458.1 500 L458.9 508 L459.3 516 L459.3 524 L458.9 532 L458.1 540 L457 548 L455.6 556 L454 564 L452.2 572 L450.3 580 L448.4 588 L446.6 596 L445 604 L443.6 612 L442.5 620 L441.7 628 L441.4 636 L441.4 644 L441.8 652 L442.6 660 L443.8 668 L445.2 676 L446.8 684 L448.7 692 L450.5 700 L452.4 708 L454.2 716 L455.8 724 L457.2 732 L458.3 740 L459 748 L459.3 756 L459.2 764 L458.8 772 L458 780 L456.8 788 L455.4 796 L453.7 804 L451.9 812 L450 820 L448.1 828 L446.3 836 L444.7 844 L443.4 852 L442.3 860 L441.7 868 L441.3 876 L441.4 884 L441.9 892 L442.8 900" fill="none" stroke="#000" stroke-opacity=".45" stroke-width="2.4" stroke-linejoin="round" stroke-linecap="round"/><path d="M159.1 316 L158.9 324 L158.3 332 L157.3 340 L156 348 L154.5 356 L152.8 364 L150.9 372 L149 380 L147.2 388 L145.5 396 L144 404 L142.7 412 L141.8 420 L141.3 428 L141.1 436 L141.4 444 L142 452 L143 460 L144.4 468 L145.9 476 L147.7 484 L149.5 492 L151.4 500 L153.3 508 L155 516 L156.4 524 L157.6 532 L158.5 540 L159 548 L159.1 556 L158.8 564 L158.2 572 L157.2 580 L155.8 588 L154.2 596 L152.5 604 L150.6 612 L148.7 620 L146.9 628 L145.2 636 L143.7 644 L142.6 652 L141.7 660 L141.2 668 L141.2 676 L141.5 684 L142.2 692 L143.2 700 L144.6 708 L146.2 716 L148 724 L149.8 732 L151.7 740 L153.5 748 L155.2 756 L156.6 764 L157.8 772 L158.6 780 L159.1 788 L159.1 796 L158.8 804 L158 812 L157 820 L155.6 828 L154 836 L152.2 844 L150.3 852 L148.4 860 L146.6 868 L145 876 L143.5 884 L142.4 892 L141.6 900 M192.8 316 L191.2 324 L189.4 332 L187.5 340 L185.6 348 L183.8 356 L182.2 364 L180.7 372 L179.6 380 L178.8 388 L178.4 396 L178.3 404 L178.7 412 L179.4 420 L180.5 428 L181.9 436 L183.5 444 L185.3 452 L187.2 460 L189.1 468 L190.9 476 L192.5 484 L193.9 492 L195.1 500 L195.8 508 L196.2 516 L196.2 524 L195.8 532 L195.1 540 L194 548 L192.5 556 L190.9 564 L189.1 572 L187.2 580 L185.3 588 L183.6 596 L181.9 604 L180.5 612 L179.4 620 L178.7 628 L178.3 636 L178.4 644 L178.8 652 L179.6 660 L180.7 668 L182.1 676 L183.8 684 L185.6 692 L187.5 700 L189.4 708 L191.2 716 L192.8 724 L194.1 732 L195.2 740 L195.9 748 L196.3 756 L196.2 764 L195.7 772 L194.9 780 L193.8 788 L192.3 796 L190.6 804 L188.8 812 L186.9 820 L185.1 828 L183.3 836 L181.7 844 L180.3 852 L179.3 860 L178.6 868 L178.3 876 L178.4 884 L178.9 892 L179.7 900 M222.3 316 L220.5 324 L218.9 332 L217.5 340 L216.5 348 L215.8 356 L215.4 364 L215.5 372 L216 380 L216.8 388 L218 396 L219.5 404 L221.2 412 L223 420 L224.9 428 L226.7 436 L228.5 444 L230.1 452 L231.4 460 L232.5 468 L233.1 476 L233.4 484 L233.3 492 L232.8 500 L231.9 508 L230.7 516 L229.3 524 L227.6 532 L225.7 540 L223.8 548 L222 556 L220.2 564 L218.7 572 L217.3 580 L216.3 588 L215.7 596 L215.4 604 L215.6 612 L216.1 620 L217 628 L218.2 636 L219.7 644 L221.4 652 L223.3 660 L225.2 668 L227 676 L228.8 684 L230.3 692 L231.6 700 L232.6 708 L233.2 716 L233.4 724 L233.3 732 L232.7 740 L231.8 748 L230.5 756 L229 764 L227.3 772 L225.4 780 L223.6 788 L221.7 796 L220 804 L218.4 812 L217.2 820 L216.2 828 L215.6 836 L215.4 844 L215.6 852 L216.2 860 L217.2 868 L218.4 876 L220 884 L221.7 892 L223.6 900 M253.4 316 L252.8 324 L252.6 332 L252.8 340 L253.3 348 L254.3 356 L255.5 364 L257.1 372 L258.8 380 L260.6 388 L262.5 396 L264.4 404 L266.1 412 L267.6 420 L268.9 428 L269.8 436 L270.4 444 L270.6 452 L270.4 460 L269.8 468 L268.8 476 L267.5 484 L266 492 L264.2 500 L262.4 508 L260.5 516 L258.6 524 L256.9 532 L255.4 540 L254.2 548 L253.3 556 L252.7 564 L252.6 572 L252.8 580 L253.5 588 L254.4 596 L255.8 604 L257.3 612 L259.1 620 L260.9 628 L262.8 636 L264.7 644 L266.4 652 L267.8 660 L269.1 668 L269.9 676 L270.4 684 L270.6 692 L270.3 700 L269.6 708 L268.6 716 L267.3 724 L265.7 732 L263.9 740 L262.1 748 L260.2 756 L258.4 764 L256.7 772 L255.2 780 L254 788 L253.2 796 L252.7 804 L252.6 812 L252.9 820 L253.6 828 L254.6 836 L256 844 L257.6 852 L259.3 860 L261.2 868 L263.1 876 L264.9 884 L266.6 892 L268 900 M290.7 316 L291.7 324 L293.1 332 L294.7 340 L296.4 348 L298.3 356 L300.2 364 L302 372 L303.7 380 L305.1 388 L306.3 396 L307.2 404 L307.6 412 L307.7 420 L307.4 428 L306.7 436 L305.6 444 L304.2 452 L302.6 460 L300.9 468 L299 476 L297.1 484 L295.3 492 L293.6 500 L292.2 508 L291 516 L290.2 524 L289.8 532 L289.7 540 L290.1 548 L290.8 556 L291.9 564 L293.3 572 L294.9 580 L296.7 588 L298.6 596 L300.5 604 L302.3 612 L303.9 620 L305.3 628 L306.5 636 L307.3 644 L307.7 652 L307.7 660 L307.3 668 L306.5 676 L305.4 684 L304 692 L302.4 700 L300.6 708 L298.7 716 L296.8 724 L295 732 L293.4 740 L292 748 L290.9 756 L290.1 764 L289.8 772 L289.8 780 L290.2 788 L291 796 L292.1 804 L293.5 812 L295.2 820 L297 828 L298.9 836 L300.8 844 L302.5 852 L304.2 860 L305.5 868 L306.6 876 L307.3 884 L307.7 892 L307.6 900 M334.1 316 L336 324 L337.8 332 L339.6 340 L341.3 348 L342.6 356 L343.7 364 L344.5 372 L344.8 380 L344.8 388 L344.4 396 L343.5 404 L342.4 412 L341 420 L339.3 428 L337.5 436 L335.6 444 L333.7 452 L332 460 L330.3 468 L329 476 L327.9 484 L327.2 492 L326.9 500 L326.9 508 L327.4 516 L328.2 524 L329.4 532 L330.9 540 L332.5 548 L334.4 556 L336.3 564 L338.1 572 L339.9 580 L341.5 588 L342.8 596 L343.9 604 L344.5 612 L344.8 620 L344.7 628 L344.3 636 L343.4 644 L342.2 652 L340.7 660 L339 668 L337.2 676 L335.3 684 L333.4 692 L331.7 700 L330.1 708 L328.8 716 L327.8 724 L327.1 732 L326.9 740 L327 748 L327.5 756 L328.4 764 L329.6 772 L331.1 780 L332.8 788 L334.7 796 L336.5 804 L338.4 812 L340.2 820 L341.7 828 L343 836 L344 844 L344.6 852 L344.9 860 L344.7 868 L344.1 876 L343.2 884 L342 892 L340.5 900 M422.7 316 L422.4 324 L421.8 332 L420.9 340 L419.6 348 L418 356 L416.3 364 L414.4 372 L412.5 380 L410.7 388 L409 396 L407.5 404 L406.2 412 L405.3 420 L404.8 428 L404.7 436 L404.9 444 L405.6 452 L406.6 460 L407.9 468 L409.4 476 L411.2 484 L413.1 492 L415 500 L416.8 508 L418.5 516 L420 524 L421.2 532 L422 540 L422.5 548 L422.7 556 L422.4 564 L421.7 572 L420.7 580 L419.3 588 L417.8 596 L416 604 L414.1 612 L412.2 620 L410.4 628 L408.7 636 L407.3 644 L406.1 652 L405.2 660 L404.8 668 L404.7 676 L405 684 L405.7 692 L406.7 700 L408.1 708 L409.7 716 L411.5 724 L413.4 732 L415.2 740 L417.1 748 L418.7 756 L420.2 764 L421.3 772 L422.1 780 L422.6 788 L422.6 796 L422.3 804 L421.6 812 L420.5 820 L419.1 828 L417.5 836 L415.7 844 L413.8 852 L411.9 860 L410.1 868 L408.5 876 L407.1 884 L405.9 892 L405.1 900 M455.8 316 L454.2 324 L452.4 332 L450.6 340 L448.7 348 L446.9 356 L445.2 364 L443.8 372 L442.6 380 L441.8 388 L441.4 396 L441.4 404 L441.7 412 L442.5 420 L443.6 428 L445 436 L446.6 444 L448.4 452 L450.2 460 L452.1 468 L453.9 476 L455.6 484 L457 492 L458.1 500 L458.9 508 L459.3 516 L459.3 524 L458.9 532 L458.1 540 L457 548 L455.6 556 L454 564 L452.2 572 L450.3 580 L448.4 588 L446.6 596 L445 604 L443.6 612 L442.5 620 L441.7 628 L441.4 636 L441.4 644 L441.8 652 L442.6 660 L443.8 668 L445.2 676 L446.8 684 L448.7 692 L450.5 700 L452.4 708 L454.2 716 L455.8 724 L457.2 732 L458.3 740 L459 748 L459.3 756 L459.2 764 L458.8 772 L458 780 L456.8 788 L455.4 796 L453.7 804 L451.9 812 L450 820 L448.1 828 L446.3 836 L444.7 844 L443.4 852 L442.3 860 L441.7 868 L441.3 876 L441.4 884 L441.9 892 L442.8 900" transform="translate(1.1 1.3)" fill="none" stroke="#fff" stroke-opacity=".24" stroke-width="1.1" stroke-linejoin="round" stroke-linecap="round"/>
</svg>
